<mxfile host="app.diagrams.net" modified="2020-11-17T12:07:14.870Z" agent="5.0 (Windows NT 10.0; Win64; x64) AppleWebKit/537.36 (KHTML, like Gecko) Chrome/86.0.4240.198 Safari/537.36 Edg/86.0.622.69" etag="SQryFC8YGyfVlqEkVgr-" version="13.9.7" type="github">
  <diagram id="KuNzT68XXat6CQH8AHqp" name="Page-1">
    <mxGraphModel dx="1171" dy="668" grid="1" gridSize="10" guides="1" tooltips="1" connect="1" arrows="1" fold="1" page="1" pageScale="1" pageWidth="1169" pageHeight="827" math="0" shadow="0">
      <root>
        <mxCell id="0" />
        <mxCell id="1" parent="0" />
        <mxCell id="kkmzSnsrUQVAH4hBkXNM-33" style="edgeStyle=orthogonalEdgeStyle;rounded=0;orthogonalLoop=1;jettySize=auto;html=1;exitX=1;exitY=0.3333333333333333;exitDx=0;exitDy=0;exitPerimeter=0;" edge="1" parent="1" source="kkmzSnsrUQVAH4hBkXNM-22" target="kkmzSnsrUQVAH4hBkXNM-26">
          <mxGeometry relative="1" as="geometry" />
        </mxCell>
        <mxCell id="kkmzSnsrUQVAH4hBkXNM-22" value="User" style="shape=umlActor;verticalLabelPosition=bottom;verticalAlign=top;html=1;outlineConnect=0;" vertex="1" parent="1">
          <mxGeometry x="140" y="270" width="30" height="60" as="geometry" />
        </mxCell>
        <mxCell id="kkmzSnsrUQVAH4hBkXNM-39" style="edgeStyle=orthogonalEdgeStyle;rounded=0;orthogonalLoop=1;jettySize=auto;html=1;" edge="1" parent="1" source="kkmzSnsrUQVAH4hBkXNM-25" target="kkmzSnsrUQVAH4hBkXNM-40">
          <mxGeometry relative="1" as="geometry">
            <mxPoint x="670" y="270" as="targetPoint" />
          </mxGeometry>
        </mxCell>
        <mxCell id="kkmzSnsrUQVAH4hBkXNM-25" value="Deposit coins" style="ellipse;whiteSpace=wrap;html=1;" vertex="1" parent="1">
          <mxGeometry x="420" y="280" width="140" height="70" as="geometry" />
        </mxCell>
        <mxCell id="kkmzSnsrUQVAH4hBkXNM-48" style="edgeStyle=orthogonalEdgeStyle;rounded=0;orthogonalLoop=1;jettySize=auto;html=1;exitX=1;exitY=0;exitDx=0;exitDy=0;entryX=0;entryY=0.5;entryDx=0;entryDy=0;" edge="1" parent="1" source="kkmzSnsrUQVAH4hBkXNM-26" target="kkmzSnsrUQVAH4hBkXNM-37">
          <mxGeometry relative="1" as="geometry" />
        </mxCell>
        <mxCell id="kkmzSnsrUQVAH4hBkXNM-49" style="edgeStyle=orthogonalEdgeStyle;rounded=0;orthogonalLoop=1;jettySize=auto;html=1;" edge="1" parent="1" source="kkmzSnsrUQVAH4hBkXNM-26" target="kkmzSnsrUQVAH4hBkXNM-25">
          <mxGeometry relative="1" as="geometry">
            <Array as="points">
              <mxPoint x="420" y="270" />
              <mxPoint x="420" y="300" />
              <mxPoint x="400" y="300" />
              <mxPoint x="400" y="315" />
            </Array>
          </mxGeometry>
        </mxCell>
        <mxCell id="kkmzSnsrUQVAH4hBkXNM-26" value="Buy product" style="ellipse;whiteSpace=wrap;html=1;" vertex="1" parent="1">
          <mxGeometry x="260" y="210" width="140" height="70" as="geometry" />
        </mxCell>
        <mxCell id="kkmzSnsrUQVAH4hBkXNM-52" style="edgeStyle=orthogonalEdgeStyle;rounded=0;orthogonalLoop=1;jettySize=auto;html=1;exitX=0;exitY=0.3333333333333333;exitDx=0;exitDy=0;exitPerimeter=0;" edge="1" parent="1" source="kkmzSnsrUQVAH4hBkXNM-34" target="kkmzSnsrUQVAH4hBkXNM-43">
          <mxGeometry relative="1" as="geometry" />
        </mxCell>
        <mxCell id="kkmzSnsrUQVAH4hBkXNM-53" style="edgeStyle=orthogonalEdgeStyle;rounded=0;orthogonalLoop=1;jettySize=auto;html=1;entryX=1;entryY=0.429;entryDx=0;entryDy=0;entryPerimeter=0;" edge="1" parent="1" source="kkmzSnsrUQVAH4hBkXNM-34" target="kkmzSnsrUQVAH4hBkXNM-51">
          <mxGeometry relative="1" as="geometry">
            <Array as="points">
              <mxPoint x="1095" y="200" />
            </Array>
          </mxGeometry>
        </mxCell>
        <mxCell id="kkmzSnsrUQVAH4hBkXNM-54" style="edgeStyle=orthogonalEdgeStyle;rounded=0;orthogonalLoop=1;jettySize=auto;html=1;exitX=0.25;exitY=0.1;exitDx=0;exitDy=0;exitPerimeter=0;entryX=1;entryY=0.5;entryDx=0;entryDy=0;" edge="1" parent="1" source="kkmzSnsrUQVAH4hBkXNM-34" target="kkmzSnsrUQVAH4hBkXNM-50">
          <mxGeometry relative="1" as="geometry" />
        </mxCell>
        <mxCell id="kkmzSnsrUQVAH4hBkXNM-34" value="System" style="shape=umlActor;verticalLabelPosition=bottom;verticalAlign=top;html=1;" vertex="1" parent="1">
          <mxGeometry x="1080" y="270" width="30" height="60" as="geometry" />
        </mxCell>
        <mxCell id="kkmzSnsrUQVAH4hBkXNM-47" style="edgeStyle=orthogonalEdgeStyle;rounded=0;orthogonalLoop=1;jettySize=auto;html=1;exitX=0.5;exitY=0;exitDx=0;exitDy=0;entryX=0.5;entryY=1;entryDx=0;entryDy=0;" edge="1" parent="1" source="kkmzSnsrUQVAH4hBkXNM-37" target="kkmzSnsrUQVAH4hBkXNM-46">
          <mxGeometry relative="1" as="geometry" />
        </mxCell>
        <mxCell id="kkmzSnsrUQVAH4hBkXNM-37" value="Select product" style="ellipse;whiteSpace=wrap;html=1;" vertex="1" parent="1">
          <mxGeometry x="440" y="160" width="140" height="70" as="geometry" />
        </mxCell>
        <mxCell id="kkmzSnsrUQVAH4hBkXNM-44" style="edgeStyle=orthogonalEdgeStyle;rounded=0;orthogonalLoop=1;jettySize=auto;html=1;exitX=0.5;exitY=1;exitDx=0;exitDy=0;entryX=0;entryY=0.5;entryDx=0;entryDy=0;" edge="1" parent="1" source="kkmzSnsrUQVAH4hBkXNM-40" target="kkmzSnsrUQVAH4hBkXNM-43">
          <mxGeometry relative="1" as="geometry">
            <Array as="points">
              <mxPoint x="670" y="370" />
              <mxPoint x="775" y="370" />
              <mxPoint x="775" y="309" />
              <mxPoint x="810" y="309" />
            </Array>
          </mxGeometry>
        </mxCell>
        <mxCell id="kkmzSnsrUQVAH4hBkXNM-40" value="Cancel" style="ellipse;whiteSpace=wrap;html=1;" vertex="1" parent="1">
          <mxGeometry x="600" y="280" width="140" height="70" as="geometry" />
        </mxCell>
        <mxCell id="kkmzSnsrUQVAH4hBkXNM-41" style="edgeStyle=orthogonalEdgeStyle;rounded=0;orthogonalLoop=1;jettySize=auto;html=1;" edge="1" parent="1" target="kkmzSnsrUQVAH4hBkXNM-42">
          <mxGeometry relative="1" as="geometry">
            <mxPoint x="670" y="150" as="targetPoint" />
            <mxPoint x="580" y="195" as="sourcePoint" />
          </mxGeometry>
        </mxCell>
        <mxCell id="kkmzSnsrUQVAH4hBkXNM-42" value="Cancel" style="ellipse;whiteSpace=wrap;html=1;" vertex="1" parent="1">
          <mxGeometry x="610" y="160" width="140" height="70" as="geometry" />
        </mxCell>
        <mxCell id="kkmzSnsrUQVAH4hBkXNM-43" value="Return money" style="ellipse;whiteSpace=wrap;html=1;" vertex="1" parent="1">
          <mxGeometry x="810" y="274" width="140" height="70" as="geometry" />
        </mxCell>
        <mxCell id="kkmzSnsrUQVAH4hBkXNM-55" style="edgeStyle=orthogonalEdgeStyle;rounded=0;orthogonalLoop=1;jettySize=auto;html=1;entryX=0.5;entryY=0;entryDx=0;entryDy=0;" edge="1" parent="1" source="kkmzSnsrUQVAH4hBkXNM-46" target="kkmzSnsrUQVAH4hBkXNM-51">
          <mxGeometry relative="1" as="geometry" />
        </mxCell>
        <mxCell id="kkmzSnsrUQVAH4hBkXNM-46" value="Confirm" style="ellipse;whiteSpace=wrap;html=1;" vertex="1" parent="1">
          <mxGeometry x="440" y="30" width="140" height="70" as="geometry" />
        </mxCell>
        <mxCell id="kkmzSnsrUQVAH4hBkXNM-50" value="Counting coins" style="ellipse;whiteSpace=wrap;html=1;" vertex="1" parent="1">
          <mxGeometry x="810" y="170" width="140" height="70" as="geometry" />
        </mxCell>
        <mxCell id="kkmzSnsrUQVAH4hBkXNM-51" value="Issues products" style="ellipse;whiteSpace=wrap;html=1;" vertex="1" parent="1">
          <mxGeometry x="990" y="90" width="140" height="70" as="geometry" />
        </mxCell>
      </root>
    </mxGraphModel>
  </diagram>
</mxfile>
